<?xml version="1.0" encoding="UTF-8" standalone="no"?>
<!-- Created with Inkscape (http://www.inkscape.org/) -->

<svg
   width="36.628853mm"
   height="43.633713mm"
   viewBox="0 0 36.628853 43.633713"
   version="1.1"
   id="svg5"
   xml:space="preserve"
   inkscape:version="1.2.2 (b0a8486541, 2022-12-01)"
   sodipodi:docname="prl-logo.svg"
   xmlns:inkscape="http://www.inkscape.org/namespaces/inkscape"
   xmlns:sodipodi="http://sodipodi.sourceforge.net/DTD/sodipodi-0.dtd"
   xmlns="http://www.w3.org/2000/svg"
   xmlns:svg="http://www.w3.org/2000/svg"><sodipodi:namedview
     id="namedview7"
     pagecolor="#ffffff"
     bordercolor="#000000"
     borderopacity="0.25"
     inkscape:showpageshadow="2"
     inkscape:pageopacity="0.0"
     inkscape:pagecheckerboard="true"
     inkscape:deskcolor="#d1d1d1"
     inkscape:document-units="mm"
     showgrid="false"
     inkscape:zoom="3.2070707"
     inkscape:cx="164.48032"
     inkscape:cy="126.28346"
     inkscape:window-width="1866"
     inkscape:window-height="1116"
     inkscape:window-x="25"
     inkscape:window-y="25"
     inkscape:window-maximized="1"
     inkscape:current-layer="layer1" /><defs
     id="defs2"><inkscape:path-effect
       effect="powerstroke"
       id="path-effect970"
       is_visible="true"
       lpeversion="1"
       offset_points="1.1972103,0.87701205"
       not_jump="true"
       sort_points="true"
       interpolator_type="CentripetalCatmullRom"
       interpolator_beta="0.75"
       start_linecap_type="round"
       linejoin_type="spiro"
       miter_limit="4"
       scale_width="1"
       end_linecap_type="round" /><inkscape:path-effect
       effect="simplify"
       id="path-effect968"
       is_visible="true"
       lpeversion="1"
       steps="1"
       threshold="0.0047745358"
       smooth_angles="0"
       helper_size="0"
       simplify_individual_paths="false"
       simplify_just_coalesce="false"
       step="1" /></defs><g
     inkscape:label="Layer 1"
     inkscape:groupmode="layer"
     id="layer1"
     transform="translate(-28.191197,-67.043775)"><g
       aria-label="L  "
       id="text1163-9-7"
       style="font-size:40.5694px;font-family:FreeSans;-inkscape-font-specification:'FreeSans, Normal';letter-spacing:-16.4333px;fill:#ffffff;fill-opacity:1;stroke:#000000;stroke-width:0.5"
       transform="translate(-9.1280267,-28.135834)"><path
         id="path1440-2"
         d="m 59.394364,107.9299 h 0.227895 v 0 25.71923 h 14.075819 v 4.91419 H 53.203472 v -24.65753"
         style="fill:#ffffff;fill-opacity:1"
         sodipodi:nodetypes="cccccccc" /><path
         id="path1909"
         d="m 53.203472,113.90579 v -6.50506 h 6.190892"
         style="fill:#ffffff;fill-opacity:1" /></g><path
       d="m 55.319545,89.505647 c 0.914507,0.249137 1.575817,0.463474 2.143789,0.977353 0.595017,0.513879 1.020624,0.927643 1.264041,1.576754 0.270463,0.649111 0.272196,1.03974 0.353335,1.607711 0.08114,0.567972 0.121708,1.244129 0.121708,2.02847 0,0.243417 -0.01352,0.595018 -0.04057,1.054805 v 1.014235 c 0,1.108897 0.02753,2.638015 0.270947,3.395315 0.243416,0.75729 0.455809,1.00125 1.159012,1.48808 v 0.93309 h -6.70101 c -0.540929,-1.24412 -0.811392,-2.85338 -0.811392,-4.827755 v -3.064726 c 0,-1.8121 0.02176,-1.96913 -0.762583,-2.807564 -0.784342,-0.865481 -1.370543,-0.98041 -3.047412,-0.98041 H 42.178589 V 103.58146 H 36.288968 V 74.006371 h 15.218818 c 2.893951,0 4.704031,0.46991 6.245668,1.849269 1.568684,1.352313 2.231572,3.519415 2.231572,6.061764 0,1.676869 -0.159798,3.403928 -0.890047,4.512825 -0.730249,1.108897 -2.125611,2.26403 -3.775434,3.075418 z m -1.27424,-6.464967 c 0,-1.947331 -0.02795,-2.475708 -1.055707,-3.205957 -1.027758,-0.730249 -1.987461,-0.914161 -3.799561,-0.914161 h -7.011448 v 8.066252 h 7.011448 c 2.001424,0 2.999711,-0.257321 3.919284,-1.068709 0.94662,-0.811388 0.935984,-1.119418 0.935984,-2.877425 z"
       id="path1431-2"
       style="font-size:40.5694px;font-family:FreeSans;-inkscape-font-specification:'FreeSans, Normal';letter-spacing:-16.4333px;fill:#ffffff;fill-opacity:1;stroke:#000000;stroke-width:0.5"
       sodipodi:nodetypes="cccsscsscccsscsccccscsscsssccscs" /><g
       aria-label="P "
       id="text1163-6-7"
       style="font-size:40.3405px;font-family:FreeSans;-inkscape-font-specification:'FreeSans, Normal';letter-spacing:-16.3406px;fill:#ffffff;fill-opacity:1;stroke:#000000;stroke-width:0.5;stroke-dasharray:none"
       transform="translate(-46.16971,-1.6774939)"><path
         d="m 96.888343,78.133303 c 0.246742,6.294702 -3.796245,10.044088 -8.229462,9.897643 H 80.47924 V 98.379494 H 74.610907 V 68.971269 h 12.37933 c 6.611545,0.369828 9.855401,2.65083 9.898106,9.162034 z M 80.47924,82.606358 h 5.70939 c 3.175338,-0.02818 4.375994,-0.414558 4.751934,-4.384279 -0.173663,-3.258454 -2.037558,-4.328592 -4.751934,-4.355389 h -5.70939 z"
         id="path1324-1"
         sodipodi:nodetypes="cccccccccccccc"
         style="fill:#ffffff;fill-opacity:1;stroke:#000000;stroke-width:0.5;stroke-dasharray:none;stroke-opacity:1" /></g><rect
       style="fill:#ffffff;fill-opacity:1;stroke:#ffffff;stroke-width:0.414163;stroke-dasharray:none;stroke-opacity:1"
       id="rect2016"
       width="4.9790177"
       height="5.9128456"
       x="36.743755"
       y="80.693718" /><path
       style="font-size:40.5694px;font-family:FreeSans;-inkscape-font-specification:'FreeSans, Normal';letter-spacing:-16.4333px;fill:none;fill-opacity:1;stroke:#000000;stroke-width:0.5;stroke-dasharray:none;stroke-opacity:1"
       d="m 36.28833,79.401721 v 6.784828"
       id="path2112"
       sodipodi:nodetypes="cc" /><path
       style="font-size:40.5694px;font-family:FreeSans;-inkscape-font-specification:'FreeSans, Normal';letter-spacing:-16.4333px;fill:none;fill-opacity:1;stroke:#000000;stroke-width:0.5;stroke-dasharray:none;stroke-opacity:1"
       d="m 42.179934,80.357407 v 6.485531"
       id="path2112-9"
       sodipodi:nodetypes="cc" /></g></svg>
